<svg xmlns="http://www.w3.org/2000/svg" xmlns:xlink="http://www.w3.org/1999/xlink" width="1080" zoomAndPan="magnify" viewBox="0 0 810 809.999993" height="1080" preserveAspectRatio="xMidYMid meet" version="1.0"><defs><g/></defs><g fill="#000000" fill-opacity="1"><g transform="translate(116.592991, 269.788703)"><g><path d="M 17.578125 0.421875 C 14.609375 0.421875 11.921875 -0.226562 9.515625 -1.53125 C 7.117188 -2.832031 5.238281 -4.632812 3.875 -6.9375 C 2.519531 -9.238281 1.84375 -11.832031 1.84375 -14.71875 C 1.84375 -17.601562 2.53125 -20.191406 3.90625 -22.484375 C 5.28125 -24.785156 7.164062 -26.585938 9.5625 -27.890625 C 11.957031 -29.203125 14.644531 -29.859375 17.625 -29.859375 C 20.03125 -29.859375 22.226562 -29.4375 24.21875 -28.59375 C 26.207031 -27.75 27.890625 -26.53125 29.265625 -24.9375 L 25.734375 -21.609375 C 23.597656 -23.910156 20.976562 -25.0625 17.875 -25.0625 C 15.851562 -25.0625 14.039062 -24.617188 12.4375 -23.734375 C 10.84375 -22.847656 9.597656 -21.617188 8.703125 -20.046875 C 7.804688 -18.484375 7.359375 -16.707031 7.359375 -14.71875 C 7.359375 -12.726562 7.804688 -10.945312 8.703125 -9.375 C 9.597656 -7.800781 10.84375 -6.570312 12.4375 -5.6875 C 14.039062 -4.8125 15.851562 -4.375 17.875 -4.375 C 20.976562 -4.375 23.597656 -5.535156 25.734375 -7.859375 L 29.265625 -4.5 C 27.890625 -2.90625 26.195312 -1.6875 24.1875 -0.84375 C 22.1875 0 19.984375 0.421875 17.578125 0.421875 Z M 17.578125 0.421875 "/></g></g></g><g fill="#000000" fill-opacity="1"><g transform="translate(143.998663, 269.788703)"><g><path d="M 23.046875 -6.8125 L 8.328125 -6.8125 L 5.421875 0 L -0.203125 0 L 13.03125 -29.4375 L 18.421875 -29.4375 L 31.703125 0 L 25.984375 0 Z M 21.234375 -11.09375 L 15.6875 -23.96875 L 10.171875 -11.09375 Z M 21.234375 -11.09375 "/></g></g></g><g fill="#000000" fill-opacity="1"><g transform="translate(172.329109, 269.788703)"><g><path d="M 9.421875 -24.84375 L 9.421875 -15.890625 L 23.625 -15.890625 L 23.625 -11.265625 L 9.421875 -11.265625 L 9.421875 0 L 3.953125 0 L 3.953125 -29.4375 L 25.4375 -29.4375 L 25.4375 -24.84375 Z M 9.421875 -24.84375 "/></g></g></g><g fill="#000000" fill-opacity="1"><g transform="translate(195.951618, 269.788703)"><g><path d="M 24.5625 -11.09375 C 24.5625 -10.726562 24.53125 -10.210938 24.46875 -9.546875 L 6.859375 -9.546875 C 7.160156 -7.890625 7.960938 -6.578125 9.265625 -5.609375 C 10.566406 -4.640625 12.1875 -4.15625 14.125 -4.15625 C 16.59375 -4.15625 18.625 -4.96875 20.21875 -6.59375 L 23.046875 -3.359375 C 22.035156 -2.160156 20.757812 -1.25 19.21875 -0.625 C 17.675781 -0.0078125 15.9375 0.296875 14 0.296875 C 11.53125 0.296875 9.359375 -0.191406 7.484375 -1.171875 C 5.609375 -2.160156 4.15625 -3.53125 3.125 -5.28125 C 2.101562 -7.03125 1.59375 -9.007812 1.59375 -11.21875 C 1.59375 -13.40625 2.085938 -15.375 3.078125 -17.125 C 4.078125 -18.882812 5.457031 -20.253906 7.21875 -21.234375 C 8.988281 -22.210938 10.984375 -22.703125 13.203125 -22.703125 C 15.390625 -22.703125 17.34375 -22.21875 19.0625 -21.25 C 20.789062 -20.28125 22.140625 -18.921875 23.109375 -17.171875 C 24.078125 -15.421875 24.5625 -13.394531 24.5625 -11.09375 Z M 13.203125 -18.5 C 11.523438 -18.5 10.101562 -18 8.9375 -17 C 7.769531 -16.007812 7.0625 -14.6875 6.8125 -13.03125 L 19.546875 -13.03125 C 19.328125 -14.65625 18.640625 -15.972656 17.484375 -16.984375 C 16.335938 -17.992188 14.910156 -18.5 13.203125 -18.5 Z M 15.21875 -31.28125 L 21.40625 -31.28125 L 14.078125 -25.515625 L 9.546875 -25.515625 Z M 15.21875 -31.28125 "/></g></g></g><g fill="#000000" fill-opacity="1"><g transform="translate(218.943587, 269.788703)"><g/></g></g><g fill="#000000" fill-opacity="1"><g transform="translate(227.391375, 269.788703)"><g><path d="M 2.3125 -13.875 L 13.875 -13.875 L 13.875 -9.5 L 2.3125 -9.5 Z M 2.3125 -13.875 "/></g></g></g><g fill="#000000" fill-opacity="1"><g transform="translate(240.420999, 269.788703)"><g/></g></g><g fill="#000000" fill-opacity="1"><g transform="translate(248.868787, 269.788703)"><g><path d="M 16.0625 -29.4375 C 18.613281 -29.4375 20.832031 -29.015625 22.71875 -28.171875 C 24.613281 -27.328125 26.066406 -26.117188 27.078125 -24.546875 C 28.085938 -22.984375 28.59375 -21.125 28.59375 -18.96875 C 28.59375 -16.832031 28.085938 -14.972656 27.078125 -13.390625 C 26.066406 -11.804688 24.613281 -10.59375 22.71875 -9.75 C 20.832031 -8.914062 18.613281 -8.5 16.0625 -8.5 L 9.421875 -8.5 L 9.421875 0 L 3.953125 0 L 3.953125 -29.4375 Z M 15.8125 -13.125 C 18.195312 -13.125 20.003906 -13.625 21.234375 -14.625 C 22.460938 -15.632812 23.078125 -17.082031 23.078125 -18.96875 C 23.078125 -20.84375 22.460938 -22.285156 21.234375 -23.296875 C 20.003906 -24.304688 18.195312 -24.8125 15.8125 -24.8125 L 9.421875 -24.8125 L 9.421875 -13.125 Z M 15.8125 -13.125 "/></g></g></g><g fill="#000000" fill-opacity="1"><g transform="translate(276.232422, 269.788703)"><g><path d="M 23.046875 -6.8125 L 8.328125 -6.8125 L 5.421875 0 L -0.203125 0 L 13.03125 -29.4375 L 18.421875 -29.4375 L 31.703125 0 L 25.984375 0 Z M 21.234375 -11.09375 L 15.6875 -23.96875 L 10.171875 -11.09375 Z M 21.234375 -11.09375 "/></g></g></g><g fill="#000000" fill-opacity="1"><g transform="translate(304.562865, 269.788703)"><g><path d="M 13.078125 0.421875 C 10.804688 0.421875 8.613281 0.0976562 6.5 -0.546875 C 4.382812 -1.191406 2.707031 -2.046875 1.46875 -3.109375 L 3.359375 -7.359375 C 4.566406 -6.398438 6.046875 -5.617188 7.796875 -5.015625 C 9.546875 -4.421875 11.304688 -4.125 13.078125 -4.125 C 15.265625 -4.125 16.894531 -4.472656 17.96875 -5.171875 C 19.050781 -5.867188 19.59375 -6.796875 19.59375 -7.953125 C 19.59375 -8.785156 19.289062 -9.472656 18.6875 -10.015625 C 18.082031 -10.566406 17.316406 -10.992188 16.390625 -11.296875 C 15.472656 -11.609375 14.210938 -11.960938 12.609375 -12.359375 C 10.367188 -12.890625 8.554688 -13.421875 7.171875 -13.953125 C 5.785156 -14.492188 4.59375 -15.332031 3.59375 -16.46875 C 2.601562 -17.601562 2.109375 -19.132812 2.109375 -21.0625 C 2.109375 -22.6875 2.546875 -24.164062 3.421875 -25.5 C 4.304688 -26.832031 5.640625 -27.890625 7.421875 -28.671875 C 9.203125 -29.460938 11.378906 -29.859375 13.953125 -29.859375 C 15.753906 -29.859375 17.519531 -29.628906 19.25 -29.171875 C 20.988281 -28.722656 22.488281 -28.082031 23.75 -27.25 L 22.03125 -23 C 20.738281 -23.757812 19.390625 -24.332031 17.984375 -24.71875 C 16.585938 -25.113281 15.234375 -25.3125 13.921875 -25.3125 C 11.765625 -25.3125 10.160156 -24.945312 9.109375 -24.21875 C 8.054688 -23.488281 7.53125 -22.519531 7.53125 -21.3125 C 7.53125 -20.476562 7.828125 -19.789062 8.421875 -19.25 C 9.023438 -18.71875 9.789062 -18.296875 10.71875 -17.984375 C 11.644531 -17.679688 12.90625 -17.332031 14.5 -16.9375 C 16.6875 -16.4375 18.476562 -15.910156 19.875 -15.359375 C 21.28125 -14.816406 22.476562 -13.984375 23.46875 -12.859375 C 24.46875 -11.742188 24.96875 -10.234375 24.96875 -8.328125 C 24.96875 -6.703125 24.523438 -5.226562 23.640625 -3.90625 C 22.765625 -2.59375 21.425781 -1.539062 19.625 -0.75 C 17.832031 0.03125 15.648438 0.421875 13.078125 0.421875 Z M 13.078125 0.421875 "/></g></g></g><g fill="#000000" fill-opacity="1"><g transform="translate(327.849084, 269.788703)"><g><path d="M 9.921875 -24.8125 L 0.171875 -24.8125 L 0.171875 -29.4375 L 25.140625 -29.4375 L 25.140625 -24.8125 L 15.390625 -24.8125 L 15.390625 0 L 9.921875 0 Z M 9.921875 -24.8125 "/></g></g></g><g fill="#000000" fill-opacity="1"><g transform="translate(350.000358, 269.788703)"><g><path d="M 26.03125 -4.578125 L 26.03125 0 L 3.953125 0 L 3.953125 -29.4375 L 25.4375 -29.4375 L 25.4375 -24.84375 L 9.421875 -24.84375 L 9.421875 -17.203125 L 23.625 -17.203125 L 23.625 -12.703125 L 9.421875 -12.703125 L 9.421875 -4.578125 Z M 26.03125 -4.578125 "/></g></g></g><g fill="#000000" fill-opacity="1"><g transform="translate(375.010024, 269.788703)"><g><path d="M 3.953125 -29.4375 L 9.421875 -29.4375 L 9.421875 -4.625 L 24.8125 -4.625 L 24.8125 0 L 3.953125 0 Z M 3.953125 -29.4375 "/></g></g></g><g fill="#000000" fill-opacity="1"><g transform="translate(397.035184, 269.788703)"><g><path d="M 26.03125 -4.578125 L 26.03125 0 L 3.953125 0 L 3.953125 -29.4375 L 25.4375 -29.4375 L 25.4375 -24.84375 L 9.421875 -24.84375 L 9.421875 -17.203125 L 23.625 -17.203125 L 23.625 -12.703125 L 9.421875 -12.703125 L 9.421875 -4.578125 Z M 26.03125 -4.578125 "/></g></g></g><g fill="#000000" fill-opacity="1"><g transform="translate(422.044849, 269.788703)"><g><path d="M 23.203125 0 L 17.203125 -8.625 C 16.941406 -8.59375 16.5625 -8.578125 16.0625 -8.578125 L 9.421875 -8.578125 L 9.421875 0 L 3.953125 0 L 3.953125 -29.4375 L 16.0625 -29.4375 C 18.613281 -29.4375 20.832031 -29.015625 22.71875 -28.171875 C 24.613281 -27.328125 26.066406 -26.117188 27.078125 -24.546875 C 28.085938 -22.984375 28.59375 -21.125 28.59375 -18.96875 C 28.59375 -16.75 28.050781 -14.835938 26.96875 -13.234375 C 25.894531 -11.640625 24.347656 -10.453125 22.328125 -9.671875 L 29.09375 0 Z M 23.078125 -18.96875 C 23.078125 -20.84375 22.460938 -22.285156 21.234375 -23.296875 C 20.003906 -24.304688 18.195312 -24.8125 15.8125 -24.8125 L 9.421875 -24.8125 L 9.421875 -13.078125 L 15.8125 -13.078125 C 18.195312 -13.078125 20.003906 -13.585938 21.234375 -14.609375 C 22.460938 -15.628906 23.078125 -17.082031 23.078125 -18.96875 Z M 23.078125 -18.96875 "/></g></g></g><g fill="#000000" fill-opacity="1"><g transform="translate(449.618677, 269.788703)"><g><path d="M 3.953125 -29.4375 L 9.421875 -29.4375 L 9.421875 0 L 3.953125 0 Z M 3.953125 -29.4375 "/></g></g></g><g fill="#000000" fill-opacity="1"><g transform="translate(459.873979, 269.788703)"><g><path d="M 23.046875 -6.8125 L 8.328125 -6.8125 L 5.421875 0 L -0.203125 0 L 13.03125 -29.4375 L 18.421875 -29.4375 L 31.703125 0 L 25.984375 0 Z M 21.234375 -11.09375 L 15.6875 -23.96875 L 10.171875 -11.09375 Z M 21.234375 -11.09375 "/></g></g></g><g fill="#000000" fill-opacity="1"><g transform="translate(19.190983, 209.526033)"><g><path d="M 12.71875 -127.140625 L 72.828125 -127.140625 C 86.753906 -127.140625 99.101562 -124.535156 109.875 -119.328125 C 120.65625 -114.117188 129.007812 -106.734375 134.9375 -97.171875 C 140.875 -87.609375 143.84375 -76.40625 143.84375 -63.5625 C 143.84375 -50.726562 140.875 -39.53125 134.9375 -29.96875 C 129.007812 -20.40625 120.65625 -13.019531 109.875 -7.8125 C 99.101562 -2.601562 86.753906 0 72.828125 0 L 12.71875 0 Z M 71.375 -28.703125 C 82.269531 -28.703125 91.015625 -31.785156 97.609375 -37.953125 C 104.210938 -44.128906 107.515625 -52.664062 107.515625 -63.5625 C 107.515625 -74.46875 104.210938 -83.003906 97.609375 -89.171875 C 91.015625 -95.347656 82.269531 -98.4375 71.375 -98.4375 L 48.671875 -98.4375 L 48.671875 -28.703125 Z M 71.375 -28.703125 "/></g></g></g><g fill="#000000" fill-opacity="1"><g transform="translate(155.584776, 209.526033)"><g><path d="M 12.71875 -127.140625 L 48.671875 -127.140625 L 48.671875 0 L 12.71875 0 Z M 12.71875 -127.140625 "/></g></g></g><g fill="#000000" fill-opacity="1"><g transform="translate(203.530998, 209.526033)"><g><path d="M 76.828125 2.546875 C 63.390625 2.546875 51.3125 -0.296875 40.59375 -5.984375 C 29.875 -11.679688 21.457031 -19.554688 15.34375 -29.609375 C 9.226562 -39.660156 6.171875 -50.976562 6.171875 -63.5625 C 6.171875 -76.15625 9.226562 -87.476562 15.34375 -97.53125 C 21.457031 -107.582031 29.875 -115.453125 40.59375 -121.140625 C 51.3125 -126.835938 63.390625 -129.6875 76.828125 -129.6875 C 90.265625 -129.6875 102.34375 -126.835938 113.0625 -121.140625 C 123.78125 -115.453125 132.195312 -107.582031 138.3125 -97.53125 C 144.425781 -87.476562 147.484375 -76.15625 147.484375 -63.5625 C 147.484375 -50.976562 144.425781 -39.660156 138.3125 -29.609375 C 132.195312 -19.554688 123.78125 -11.679688 113.0625 -5.984375 C 102.34375 -0.296875 90.265625 2.546875 76.828125 2.546875 Z M 76.828125 -27.25 C 83.242188 -27.25 89.054688 -28.757812 94.265625 -31.78125 C 99.472656 -34.8125 103.585938 -39.082031 106.609375 -44.59375 C 109.640625 -50.101562 111.15625 -56.425781 111.15625 -63.5625 C 111.15625 -70.707031 109.640625 -77.035156 106.609375 -82.546875 C 103.585938 -88.054688 99.472656 -92.320312 94.265625 -95.34375 C 89.054688 -98.375 83.242188 -99.890625 76.828125 -99.890625 C 70.410156 -99.890625 64.597656 -98.375 59.390625 -95.34375 C 54.179688 -92.320312 50.0625 -88.054688 47.03125 -82.546875 C 44.007812 -77.035156 42.5 -70.707031 42.5 -63.5625 C 42.5 -56.425781 44.007812 -50.101562 47.03125 -44.59375 C 50.0625 -39.082031 54.179688 -34.8125 59.390625 -31.78125 C 64.597656 -28.757812 70.410156 -27.25 76.828125 -27.25 Z M 76.828125 -27.25 "/></g></g></g><g fill="#000000" fill-opacity="1"><g transform="translate(343.557131, 209.526033)"><g><path d="M 133.671875 -127.140625 L 133.671875 0 L 104.078125 0 L 47.953125 -67.75 L 47.953125 0 L 12.71875 0 L 12.71875 -127.140625 L 42.3125 -127.140625 L 98.4375 -59.390625 L 98.4375 -127.140625 Z M 133.671875 -127.140625 "/></g></g></g><g fill="#000000" fill-opacity="1"><g transform="translate(476.318569, 209.526033)"><g><path d="M 12.71875 -127.140625 L 48.671875 -127.140625 L 48.671875 0 L 12.71875 0 Z M 12.71875 -127.140625 "/></g></g></g><g fill="#000000" fill-opacity="1"><g transform="translate(524.26478, 209.526033)"><g><path d="M 57.390625 2.546875 C 47.097656 2.546875 37.109375 1.273438 27.421875 -1.265625 C 17.734375 -3.804688 9.863281 -7.195312 3.8125 -11.4375 L 15.625 -37.953125 C 21.3125 -34.203125 27.90625 -31.175781 35.40625 -28.875 C 42.914062 -26.570312 50.304688 -25.421875 57.578125 -25.421875 C 71.378906 -25.421875 78.28125 -28.875 78.28125 -35.78125 C 78.28125 -39.414062 76.3125 -42.109375 72.375 -43.859375 C 68.4375 -45.617188 62.109375 -47.46875 53.390625 -49.40625 C 43.828125 -51.457031 35.835938 -53.664062 29.421875 -56.03125 C 23.003906 -58.394531 17.492188 -62.175781 12.890625 -67.375 C 8.296875 -72.582031 6 -79.609375 6 -88.453125 C 6 -96.203125 8.113281 -103.191406 12.34375 -109.421875 C 16.582031 -115.660156 22.910156 -120.597656 31.328125 -124.234375 C 39.742188 -127.867188 50.066406 -129.6875 62.296875 -129.6875 C 70.648438 -129.6875 78.882812 -128.742188 87 -126.859375 C 95.113281 -124.984375 102.257812 -122.226562 108.4375 -118.59375 L 97.34375 -91.90625 C 85.238281 -98.4375 73.492188 -101.703125 62.109375 -101.703125 C 54.972656 -101.703125 49.769531 -100.644531 46.5 -98.53125 C 43.226562 -96.414062 41.59375 -93.660156 41.59375 -90.265625 C 41.59375 -86.878906 43.53125 -84.335938 47.40625 -82.640625 C 51.28125 -80.941406 57.515625 -79.1875 66.109375 -77.375 C 75.796875 -75.3125 83.816406 -73.097656 90.171875 -70.734375 C 96.535156 -68.378906 102.046875 -64.628906 106.703125 -59.484375 C 111.367188 -54.335938 113.703125 -47.34375 113.703125 -38.5 C 113.703125 -30.875 111.582031 -23.972656 107.34375 -17.796875 C 103.101562 -11.617188 96.742188 -6.679688 88.265625 -2.984375 C 79.796875 0.703125 69.503906 2.546875 57.390625 2.546875 Z M 57.390625 2.546875 "/></g></g></g><g fill="#000000" fill-opacity="1"><g transform="translate(628.149113, 209.526033)"><g><path d="M 76.828125 2.546875 C 63.390625 2.546875 51.3125 -0.296875 40.59375 -5.984375 C 29.875 -11.679688 21.457031 -19.554688 15.34375 -29.609375 C 9.226562 -39.660156 6.171875 -50.976562 6.171875 -63.5625 C 6.171875 -76.15625 9.226562 -87.476562 15.34375 -97.53125 C 21.457031 -107.582031 29.875 -115.453125 40.59375 -121.140625 C 51.3125 -126.835938 63.390625 -129.6875 76.828125 -129.6875 C 90.265625 -129.6875 102.34375 -126.835938 113.0625 -121.140625 C 123.78125 -115.453125 132.195312 -107.582031 138.3125 -97.53125 C 144.425781 -87.476562 147.484375 -76.15625 147.484375 -63.5625 C 147.484375 -50.976562 144.425781 -39.660156 138.3125 -29.609375 C 132.195312 -19.554688 123.78125 -11.679688 113.0625 -5.984375 C 102.34375 -0.296875 90.265625 2.546875 76.828125 2.546875 Z M 76.828125 -27.25 C 83.242188 -27.25 89.054688 -28.757812 94.265625 -31.78125 C 99.472656 -34.8125 103.585938 -39.082031 106.609375 -44.59375 C 109.640625 -50.101562 111.15625 -56.425781 111.15625 -63.5625 C 111.15625 -70.707031 109.640625 -77.035156 106.609375 -82.546875 C 103.585938 -88.054688 99.472656 -92.320312 94.265625 -95.34375 C 89.054688 -98.375 83.242188 -99.890625 76.828125 -99.890625 C 70.410156 -99.890625 64.597656 -98.375 59.390625 -95.34375 C 54.179688 -92.320312 50.0625 -88.054688 47.03125 -82.546875 C 44.007812 -77.035156 42.5 -70.707031 42.5 -63.5625 C 42.5 -56.425781 44.007812 -50.101562 47.03125 -44.59375 C 50.0625 -39.082031 54.179688 -34.8125 59.390625 -31.78125 C 64.597656 -28.757812 70.410156 -27.25 76.828125 -27.25 Z M 76.828125 -27.25 "/></g></g></g></svg>