<svg xmlns="http://www.w3.org/2000/svg" xmlns:xlink="http://www.w3.org/1999/xlink" width="220" zoomAndPan="magnify" viewBox="0 0 165 637.499986" height="850" preserveAspectRatio="xMidYMid meet" version="1.0"><defs><clipPath id="d42fbd1eda"><path d="M 0.0664062 0 L 164.933594 0 L 164.933594 637 L 0.0664062 637 Z M 0.0664062 0 " clip-rule="nonzero"/></clipPath><clipPath id="c4413de47d"><path d="M 17 0 L 162 0 L 162 637 L 17 637 Z M 17 0 " clip-rule="nonzero"/></clipPath></defs><g clip-path="url(#d42fbd1eda)"><path fill="#ffffff" d="M 0.0664062 0 L 164.933594 0 L 164.933594 644.496094 L 0.0664062 644.496094 Z M 0.0664062 0 " fill-opacity="1" fill-rule="nonzero"/><path fill="#ffffff" d="M 0.0664062 0 L 164.933594 0 L 164.933594 637 L 0.0664062 637 Z M 0.0664062 0 " fill-opacity="1" fill-rule="nonzero"/><path fill="#ffffff" d="M 0.0664062 0 L 164.933594 0 L 164.933594 637 L 0.0664062 637 Z M 0.0664062 0 " fill-opacity="1" fill-rule="nonzero"/></g><g clip-path="url(#c4413de47d)"><path stroke-linecap="butt" transform="matrix(0.000000000000000049, 0.79602, -0.79602, 0.000000000000000049, 144.105308, 0.00233276)" fill="none" stroke-linejoin="miter" d="M 102.499248 130.73326 C 150.791279 130.73326 174.660035 111.678493 178.124538 77.794084 L 150.45268 77.794084 C 147.326776 99.425145 130.176014 107.708546 102.499248 107.708546 C 69.802388 107.708546 53.701773 96.299241 53.701773 68.244618 C 53.701773 40.405914 69.630635 29.168362 102.499248 29.168362 C 130.342859 29.168362 147.326776 37.28001 150.45268 58.739318 L 177.957693 58.739318 C 174.660035 24.982496 150.791279 6.143648 102.499248 6.143648 C 49.182216 6.143648 26.368513 28.785598 26.368513 68.244618 C 26.368513 107.875392 49.182216 130.73326 102.499248 130.73326 Z M 267.759965 130.73326 C 320.865986 130.73326 343.8907 107.708546 343.8907 68.244618 C 343.8907 28.996609 320.865986 6.143648 267.759965 6.143648 C 214.442933 6.143648 191.62923 28.785598 191.62923 68.244618 C 191.62923 107.875392 214.442933 130.73326 267.759965 130.73326 Z M 267.759965 107.708546 C 233.664545 107.708546 218.96249 96.299241 218.96249 68.244618 C 218.96249 40.405914 233.497699 29.168362 267.759965 29.168362 C 302.022231 29.168362 316.55744 40.57276 316.55744 68.244618 C 316.55744 96.132395 301.855385 107.708546 267.759965 107.708546 Z M 359.137457 129.001008 L 386.475625 129.001008 L 386.475625 89.370235 L 476.80297 89.370235 L 476.80297 66.512367 L 386.475625 66.512367 L 386.475625 30.900613 L 487.196479 30.900613 L 487.196479 7.875899 L 359.137457 7.875899 Z M 502.423608 129.001008 L 529.756868 129.001008 L 529.756868 89.370235 L 620.084213 89.370235 L 620.084213 66.512367 L 529.756868 66.512367 L 529.756868 30.900613 L 630.477722 30.900613 L 630.477722 7.875899 L 502.423608 7.875899 Z M 645.704851 129.001008 L 773.758965 129.001008 L 773.758965 107.031348 L 673.038111 107.031348 L 673.038111 78.80988 L 773.758965 78.80988 L 773.758965 58.067027 L 673.038111 58.067027 L 673.038111 29.840652 L 773.758965 29.840652 L 773.758965 7.875899 L 645.704851 7.875899 Z M 645.704851 129.001008 " stroke="#000000" stroke-width="4.975446" stroke-opacity="1" stroke-miterlimit="4"/></g></svg>